HIERARCHY
ROOT hip
{
	OFFSET 0.000000 0.000000 0.000000 
	CHANNELS 6 Xposition Yposition Zposition Xrotation Zrotation Yrotation
	JOINT abdomen
	{
		OFFSET 0.000000 3.402643 0.000000 
		CHANNELS 3 Xrotation Zrotation Yrotation
		JOINT chest
		{
			OFFSET 0.000000 8.438565 -0.680529 
			CHANNELS 3 Xrotation Zrotation Yrotation
			JOINT neck
			{
				OFFSET 0.000000 10.207942 -0.272212 
				CHANNELS 3 Xrotation Zrotation Yrotation
				JOINT head
				{
					OFFSET 0.000000 3.130431 0.000000 
					CHANNELS 3 Xrotation Zrotation Yrotation
					End Site
					{
						OFFSET 0.000000 3.130435 0.000000 
					}
				}
			}
			JOINT lCollar
			{
				OFFSET 3.470700 6.669187 -0.816635 
				CHANNELS 3 Yrotation Zrotation Xrotation
				JOINT lShldr
				{
					OFFSET 3.198488 0.000000 0.000000 
					CHANNELS 3 Zrotation Yrotation Xrotation
					JOINT lForeArm
					{
						OFFSET 10.139888 0.000000 0.000000 
						CHANNELS 3 Yrotation Zrotation Xrotation
						JOINT lHand
						{
							OFFSET 8.370511 0.000000 0.000000 
							CHANNELS 3 Zrotation Yrotation Xrotation
							End Site
							{
								OFFSET 4.083176 0.000000 0.000000 
							}
						}
					}
				}
			}
			JOINT rCollar
			{
				OFFSET -3.470700 6.669187 -0.816635 
				CHANNELS 3 Yrotation Zrotation Xrotation
				JOINT rShldr
				{
					OFFSET -3.198488 0.000000 0.000000 
					CHANNELS 3 Zrotation Yrotation Xrotation
					JOINT rForeArm
					{
						OFFSET -10.139888 0.000000 0.000000 
						CHANNELS 3 Yrotation Zrotation Xrotation
						JOINT rHand
						{
							OFFSET -8.370511 0.000000 0.000000 
							CHANNELS 3 Zrotation Yrotation Xrotation
							End Site
							{
								OFFSET -4.083176 0.000000 0.000000 
							}
						}
					}
				}
			}
		}
	}
	JOINT lThigh
	{
		OFFSET 5.308129 -1.633274 1.361059 
		CHANNELS 3 Xrotation Zrotation Yrotation
		JOINT lShin
		{
			OFFSET -2.041588 -20.007561 0.000000 
			CHANNELS 3 Xrotation Zrotation Yrotation
			JOINT lFoot
			{
				OFFSET 0.000000 -19.190928 -1.224953 
				CHANNELS 3 Xrotation Yrotation Zrotation
				End Site
				{
					OFFSET 0.000000 -2.449906 4.627600 
				}
			}
		}
	}
	JOINT rThigh
	{
		OFFSET -5.308129 -1.633274 1.361059 
		CHANNELS 3 Xrotation Zrotation Yrotation
		JOINT rShin
		{
			OFFSET 2.041588 -20.007561 0.000000 
			CHANNELS 3 Xrotation Zrotation Yrotation
			JOINT rFoot
			{
				OFFSET 0.000000 -19.190928 -1.224953 
				CHANNELS 3 Xrotation Yrotation Zrotation
				End Site
				{
					OFFSET 0.000000 -2.449906 4.627600 
				}
			}
		}
	}
}
MOTION
Frames: 8
Frame Time: 0.016667
-0.091386 54.037079 -2.545958 -7.012053 2.323489 1.436742 26.146467 -1.104137 -0.245605 -0.765587 1.142497 -1.035215 -7.675889 0.358723 -0.044397 9.898710 -3.915855 -0.519037 -8.242727 -9.295268 -0.491958 -64.330574 12.191994 -17.861921 -27.694206 -5.000000 28.165184 -25.912886 14.119605 20.662861 5.555377 10.163671 -0.538514 64.574028 -7.661347 -12.819042 22.151968 5.000000 27.275053 18.443211 -16.717098 4.711921 14.289989 8.589373 -4.963449 0.371135 -5.058538 -0.222834 -8.026280 9.586250 -3.104095 17.362185 -7.392991 -8.214479 -0.817194 2.834627 -0.033883 -5.939300 -14.924292 6.582110 
-0.088388 54.038460 -2.551389 -7.001645 2.333241 1.446897 26.136822 -1.149665 -0.263226 -0.725940 1.142504 -1.015690 -7.705210 0.387690 -0.048780 9.904727 -3.915797 -0.607390 -8.281789 -9.295259 -0.491957 -64.338371 12.195568 -17.915895 -27.678921 -5.000000 28.159447 -25.928017 14.076554 20.716946 5.536034 10.183180 -0.539522 64.555885 -7.652244 -12.833618 22.160912 5.000000 27.272980 18.410480 -16.680346 4.712791 14.246857 8.582708 -5.005414 0.372000 -5.068116 -0.212930 -7.972217 9.562397 -3.129159 17.343401 -7.412305 -8.248641 -0.808368 2.847587 -0.023841 -5.922719 -14.971129 6.553124 
-0.085357 54.038185 -2.557647 -6.991481 2.333231 1.456655 26.117422 -1.183424 -0.254879 -0.705718 1.132745 -0.976634 -7.715029 0.445625 -0.057545 9.932281 -3.915704 -0.724971 -8.369595 -9.285495 -0.491451 -64.365799 12.214936 -17.974255 -27.639280 -5.000000 28.153744 -25.952333 14.061253 20.791847 5.506925 10.202688 -0.540531 64.547356 -7.640980 -12.849499 22.160868 5.000000 27.308369 18.376040 -16.629574 4.650873 14.241858 8.569766 -5.026888 0.381667 -5.047944 -0.223786 -7.983513 9.581370 -3.130492 17.311367 -7.411460 -8.248816 -0.788671 2.812569 -0.021740 -5.926381 -14.979691 6.550007 
-0.082301 54.036800 -2.564461 -6.991730 2.323469 1.456653 26.107784 -1.192907 -0.226441 -0.685314 1.122988 -0.927813 -7.715047 0.543643 -0.062498 9.970411 -3.925349 -0.851627 -8.486526 -9.256218 -0.489936 -64.403740 12.244261 -18.037117 -27.602463 -5.000000 28.139788 -25.977654 14.042342 20.877672 5.468144 10.231951 -0.542043 64.520592 -7.638266 -12.871557 22.174179 5.000000 27.359503 18.327587 -16.558146 4.538336 14.223740 8.580599 -5.044974 0.381787 -5.067672 -0.233253 -7.994246 9.631306 -3.085164 17.295715 -7.399205 -8.256682 -0.788361 2.823072 -0.012230 -5.911622 -14.983788 6.537673 
-0.079524 54.035969 -2.571287 -6.992226 2.303944 1.456257 26.107777 -1.221016 -0.205681 -0.674973 1.103462 -0.888755 -7.705374 0.620889 -0.074185 10.007751 -3.925222 -0.969208 -8.593779 -9.236694 -0.488926 -64.441284 12.282321 -18.097881 -27.559393 -5.000000 28.117275 -25.999922 14.031489 20.961123 5.437370 10.262138 -0.533990 64.503319 -7.651015 -12.887789 22.183029 5.000000 27.392796 18.293762 -16.494633 4.437863 14.206160 8.591247 -5.053248 0.381715 -5.067828 -0.243008 -8.027502 9.648891 -3.062772 17.294090 -7.402559 -8.256591 -0.778807 2.856086 -0.012439 -5.919492 -14.987041 6.524293 
-0.077855 54.037357 -2.578157 -6.991833 2.303934 1.466407 26.107550 -1.233866 -0.200626 -0.684449 1.074166 -0.859459 -7.646832 0.659512 -0.080029 10.022697 -3.915363 -1.047817 -8.681415 -9.207424 -0.485850 -64.469353 12.323361 -18.156614 -27.542843 -5.000000 28.064537 -26.010309 14.003931 20.986328 5.447414 10.291396 -0.535502 64.506172 -7.672420 -12.909871 22.180861 5.000000 27.366194 18.260111 -16.467199 4.437882 14.201926 8.598957 -5.051112 0.371119 -5.058238 -0.203323 -7.972179 9.569676 -3.061222 17.282639 -7.402091 -8.226817 -0.761681 2.840212 -0.020616 -5.928437 -15.020527 6.529546 
-0.076185 54.038746 -2.585024 -6.991833 2.303934 1.466407 26.107128 -1.250611 -0.186619 -0.703690 1.044871 -0.830162 -7.588176 0.699595 -0.076217 10.047192 -3.895734 -1.125760 -8.769135 -9.187903 -0.484843 -64.497017 12.373166 -18.211195 -27.517164 -5.000000 28.014481 -26.030109 13.979881 21.009180 5.447693 10.320651 -0.537015 64.498444 -7.691810 -12.921883 22.187626 5.000000 27.337513 18.229937 -16.427572 4.429550 14.191592 8.578624 -5.034953 0.381732 -5.047644 -0.204276 -7.915794 9.571488 -3.065075 17.250084 -7.401116 -8.207109 -0.731936 2.838209 -0.008955 -5.924662 -15.056264 6.558448 
-0.073451 54.040134 -2.590742 -7.000703 2.323448 1.476168 26.146164 -1.259746 -0.191004 -0.684255 1.054636 -0.839928 -7.627313 0.669167 -0.081490 10.029852 -3.905459 -1.155654 -8.749604 -9.187907 -0.484843 -64.484505 12.337161 -18.195589 -27.483721 -5.000000 28.014116 -26.014536 13.937541 21.032940 5.428162 10.320651 -0.537015 64.502403 -7.638006 -12.883237 22.203384 5.000000 27.273739 18.261829 -16.415398 4.464152 14.184340 8.570530 -5.046825 0.391324 -5.047045 -0.214843 -7.892816 9.553905 -3.074371 17.262253 -7.421014 -8.201303 -0.731798 2.827889 -0.018468 -5.928336 -15.047226 6.571259 
